<svg width="22" height="18" viewBox="0 0 22 18" fill="none" xmlns="http://www.w3.org/2000/svg">
<path fill-rule="evenodd" clip-rule="evenodd" d="M5.12505 17.6023H1.56081C0.700047 17.6023 0 16.9186 0 16.0741V8.30008C0 7.45566 0.701409 6.7706 1.56081 6.7706H5.12505C5.98854 6.7706 6.68858 7.45566 6.68858 8.30008V16.0741C6.68858 16.9186 5.98717 17.6023 5.12505 17.6023Z" fill="#32586D"/>
<path fill-rule="evenodd" clip-rule="evenodd" d="M18.9176 13.5042V14.9805H20.9796C20.8761 16.5414 20.0835 17.5642 18.6098 17.5642H12.5818C11.6448 17.5642 11.1803 15.7773 8.90586 15.7773L8.14589 15.8032V7.69134C8.14589 7.69134 9.59365 7.46525 10.0785 5.93305C10.0785 5.93305 12.0547 0.538327 13.5787 0.000352899C14.4749 0.000352899 15.2008 -0.0636592 15.2008 1.53256L14.3905 4.00315C14.3905 4.00315 13.9097 6.77065 17.3051 6.77065H20.2265C21.1635 6.77065 21.6701 7.34812 21.6701 8.19935C21.6701 8.19935 21.6892 8.68557 21.6797 9.41966H18.919V10.896H21.6293C21.5816 11.7132 21.4904 12.6203 21.3324 13.5055H18.9176V13.5042Z" fill="#32586D"/>
</svg>
