<svg width="175" height="29" viewBox="0 0 175 29" fill="none" xmlns="http://www.w3.org/2000/svg">
<path d="M0.939345 12.941C0.353558 13.5268 0.353558 14.4765 0.939344 15.0623L10.4853 24.6083C11.0711 25.194 12.0208 25.194 12.6066 24.6083C13.1924 24.0225 13.1924 23.0727 12.6066 22.4869L4.12133 14.0016L12.6066 5.51637C13.1924 4.93058 13.1924 3.98083 12.6066 3.39505C12.0208 2.80926 11.0711 2.80926 10.4853 3.39505L0.939345 12.941ZM2.73077 12.5016L2 12.5016L2 15.5016L2.73077 15.5016L2.73077 12.5016Z" fill="#32586D"/>
<path d="M41.0607 15.0623C41.6464 14.4765 41.6464 13.5268 41.0607 12.941L31.5147 3.39505C30.9289 2.80926 29.9792 2.80926 29.3934 3.39505C28.8076 3.98083 28.8076 4.93058 29.3934 5.51637L37.8787 14.0016L29.3934 22.4869C28.8076 23.0727 28.8076 24.0225 29.3934 24.6082C29.9792 25.194 30.9289 25.194 31.5147 24.6082L41.0607 15.0623ZM39.2692 15.5016H40V12.5016H39.2692V15.5016Z" fill="#32586D"/>
<line x1="1.5" y1="-1.5" x2="27.9532" y2="-1.5" transform="matrix(-0.310229 0.950662 -0.949104 -0.314964 24.2911 0)" stroke="#32586D" stroke-width="3" stroke-linecap="round"/>
<path d="M64.2642 21V6.45455H70.0028C71.1061 6.45455 72.0459 6.66525 72.8224 7.08665C73.599 7.50331 74.1908 8.08333 74.598 8.8267C75.0099 9.56534 75.2159 10.4176 75.2159 11.3835C75.2159 12.3494 75.0076 13.2017 74.5909 13.9403C74.1742 14.679 73.5705 15.2543 72.7798 15.6662C71.9938 16.0781 71.0421 16.2841 69.9247 16.2841H66.267V13.8196H69.4276C70.0194 13.8196 70.5071 13.7178 70.8906 13.5142C71.2789 13.3059 71.5677 13.0194 71.7571 12.6548C71.9512 12.2855 72.0483 11.8617 72.0483 11.3835C72.0483 10.9006 71.9512 10.4792 71.7571 10.1193C71.5677 9.75473 71.2789 9.47301 70.8906 9.27415C70.5024 9.07055 70.0099 8.96875 69.4134 8.96875H67.3395V21H64.2642ZM77.1566 21V10.0909H80.0898V11.9943H80.2035C80.4023 11.3172 80.7362 10.8059 81.2049 10.4602C81.6737 10.1098 82.2134 9.93466 82.8242 9.93466C82.9757 9.93466 83.1391 9.94413 83.3143 9.96307C83.4895 9.98201 83.6433 10.008 83.7759 10.0412V12.7259C83.6339 12.6832 83.4374 12.6454 83.1864 12.6122C82.9355 12.5791 82.7058 12.5625 82.4975 12.5625C82.0524 12.5625 81.6547 12.6596 81.3043 12.8537C80.9587 13.0431 80.6841 13.3082 80.4805 13.6491C80.2816 13.9901 80.1822 14.383 80.1822 14.8281V21H77.1566ZM89.804 21.2131C88.6818 21.2131 87.7159 20.9858 86.9062 20.5312C86.1013 20.072 85.4811 19.4233 85.0455 18.5852C84.6098 17.7424 84.392 16.7457 84.392 15.5952C84.392 14.473 84.6098 13.4882 85.0455 12.6406C85.4811 11.7931 86.0942 11.1326 86.8849 10.6591C87.6804 10.1856 88.6132 9.94886 89.6832 9.94886C90.4029 9.94886 91.0729 10.0649 91.6932 10.2969C92.3182 10.5241 92.8627 10.8674 93.3267 11.3267C93.7955 11.786 94.16 12.3636 94.4205 13.0597C94.6809 13.7509 94.8111 14.5606 94.8111 15.4886V16.3196H85.5994V14.4446H91.9631C91.9631 14.009 91.8684 13.6231 91.679 13.2869C91.4896 12.9508 91.2268 12.688 90.8906 12.4986C90.5592 12.3045 90.1733 12.2074 89.733 12.2074C89.2737 12.2074 88.8665 12.3139 88.5114 12.527C88.161 12.7353 87.8864 13.017 87.6875 13.3722C87.4886 13.7225 87.3868 14.1132 87.3821 14.544V16.3267C87.3821 16.8665 87.4815 17.3329 87.6804 17.7259C87.884 18.1188 88.1705 18.4219 88.5398 18.6349C88.9091 18.848 89.3471 18.9545 89.8537 18.9545C90.1899 18.9545 90.4976 18.9072 90.777 18.8125C91.0563 18.7178 91.2955 18.5758 91.4943 18.3864C91.6932 18.197 91.8447 17.965 91.9489 17.6903L94.7472 17.875C94.6051 18.5473 94.3139 19.1345 93.8736 19.6364C93.438 20.1335 92.8745 20.5218 92.1832 20.8011C91.4967 21.0758 90.7036 21.2131 89.804 21.2131ZM102.588 10.0909V12.3636H96.0185V10.0909H102.588ZM97.5099 7.47727H100.536V17.6477C100.536 17.9271 100.578 18.1449 100.663 18.3011C100.749 18.4527 100.867 18.5592 101.018 18.6207C101.175 18.6823 101.355 18.7131 101.558 18.7131C101.7 18.7131 101.842 18.7012 101.984 18.6776C102.126 18.6491 102.235 18.6278 102.311 18.6136L102.787 20.8651C102.635 20.9124 102.422 20.9669 102.148 21.0284C101.873 21.0947 101.539 21.1349 101.146 21.1491C100.417 21.1776 99.7779 21.0805 99.2287 20.858C98.6842 20.6354 98.2604 20.2898 97.9574 19.821C97.6544 19.3523 97.5052 18.7604 97.5099 18.0455V7.47727ZM110.362 10.0909V12.3636H103.792V10.0909H110.362ZM105.283 7.47727H108.309V17.6477C108.309 17.9271 108.352 18.1449 108.437 18.3011C108.522 18.4527 108.64 18.5592 108.792 18.6207C108.948 18.6823 109.128 18.7131 109.332 18.7131C109.474 18.7131 109.616 18.7012 109.758 18.6776C109.9 18.6491 110.009 18.6278 110.085 18.6136L110.56 20.8651C110.409 20.9124 110.196 20.9669 109.921 21.0284C109.647 21.0947 109.313 21.1349 108.92 21.1491C108.191 21.1776 107.551 21.0805 107.002 20.858C106.458 20.6354 106.034 20.2898 105.731 19.821C105.428 19.3523 105.279 18.7604 105.283 18.0455V7.47727ZM114.2 25.0909C113.817 25.0909 113.457 25.0601 113.121 24.9986C112.789 24.9418 112.515 24.8684 112.297 24.7784L112.979 22.5199C113.334 22.6288 113.653 22.688 113.938 22.6974C114.226 22.7069 114.475 22.6406 114.683 22.4986C114.896 22.3565 115.069 22.1151 115.202 21.7741L115.379 21.3125L111.466 10.0909H114.648L116.906 18.1023H117.02L119.3 10.0909H122.503L118.263 22.179C118.059 22.7661 117.782 23.2775 117.432 23.7131C117.086 24.1534 116.648 24.492 116.118 24.7287C115.588 24.9702 114.948 25.0909 114.2 25.0909ZM136.942 11.5469H133.831C133.774 11.1444 133.658 10.7869 133.483 10.4744C133.308 10.1572 133.083 9.88731 132.808 9.66477C132.534 9.44223 132.216 9.27178 131.857 9.15341C131.501 9.03504 131.116 8.97585 130.699 8.97585C129.946 8.97585 129.29 9.16288 128.732 9.53693C128.173 9.90625 127.74 10.446 127.432 11.1562C127.124 11.8617 126.97 12.7187 126.97 13.7273C126.97 14.7642 127.124 15.6354 127.432 16.3409C127.744 17.0464 128.18 17.5791 128.739 17.9389C129.297 18.2988 129.944 18.4787 130.678 18.4787C131.089 18.4787 131.471 18.4242 131.821 18.3153C132.176 18.2064 132.491 18.0478 132.766 17.8395C133.04 17.6264 133.268 17.3684 133.447 17.0653C133.632 16.7623 133.76 16.4167 133.831 16.0284L136.942 16.0426C136.861 16.7102 136.66 17.3542 136.338 17.9744C136.021 18.59 135.592 19.1416 135.053 19.6293C134.518 20.1122 133.878 20.4957 133.135 20.7798C132.396 21.0592 131.561 21.1989 130.628 21.1989C129.33 21.1989 128.17 20.9053 127.148 20.3182C126.13 19.7311 125.325 18.8812 124.733 17.7685C124.146 16.6558 123.852 15.3087 123.852 13.7273C123.852 12.1411 124.151 10.7917 124.747 9.67898C125.344 8.56629 126.153 7.71875 127.176 7.13636C128.199 6.54924 129.349 6.25568 130.628 6.25568C131.471 6.25568 132.252 6.37405 132.972 6.6108C133.696 6.84754 134.338 7.19318 134.896 7.64773C135.455 8.09754 135.91 8.64915 136.26 9.30256C136.615 9.95597 136.842 10.7041 136.942 11.5469ZM144.019 21.2131C142.916 21.2131 141.962 20.9787 141.157 20.5099C140.357 20.0365 139.739 19.3783 139.303 18.5355C138.868 17.688 138.65 16.7055 138.65 15.5881C138.65 14.4612 138.868 13.4763 139.303 12.6335C139.739 11.786 140.357 11.1278 141.157 10.6591C141.962 10.1856 142.916 9.94886 144.019 9.94886C145.122 9.94886 146.074 10.1856 146.874 10.6591C147.679 11.1278 148.299 11.786 148.735 12.6335C149.171 13.4763 149.388 14.4612 149.388 15.5881C149.388 16.7055 149.171 17.688 148.735 18.5355C148.299 19.3783 147.679 20.0365 146.874 20.5099C146.074 20.9787 145.122 21.2131 144.019 21.2131ZM144.033 18.8693C144.535 18.8693 144.954 18.7273 145.29 18.4432C145.627 18.1544 145.88 17.7614 146.05 17.2642C146.226 16.767 146.313 16.2012 146.313 15.5668C146.313 14.9323 146.226 14.3665 146.05 13.8693C145.88 13.3722 145.627 12.9792 145.29 12.6903C144.954 12.4015 144.535 12.2571 144.033 12.2571C143.527 12.2571 143.101 12.4015 142.755 12.6903C142.414 12.9792 142.156 13.3722 141.981 13.8693C141.81 14.3665 141.725 14.9323 141.725 15.5668C141.725 16.2012 141.81 16.767 141.981 17.2642C142.156 17.7614 142.414 18.1544 142.755 18.4432C143.101 18.7273 143.527 18.8693 144.033 18.8693ZM155.376 21.1776C154.547 21.1776 153.797 20.9645 153.124 20.5384C152.457 20.1075 151.926 19.4754 151.533 18.642C151.145 17.804 150.951 16.7765 150.951 15.5597C150.951 14.3097 151.152 13.2704 151.555 12.4418C151.957 11.6084 152.492 10.9858 153.16 10.5739C153.832 10.1572 154.568 9.94886 155.369 9.94886C155.979 9.94886 156.488 10.053 156.896 10.2614C157.308 10.465 157.639 10.7206 157.89 11.0284C158.146 11.3314 158.34 11.6297 158.472 11.9233H158.565V6.45455H161.583V21H158.6V19.2528H158.472C158.33 19.5559 158.129 19.8565 157.869 20.1548C157.613 20.4484 157.279 20.6922 156.867 20.8864C156.46 21.0805 155.963 21.1776 155.376 21.1776ZM156.335 18.7699C156.822 18.7699 157.234 18.6373 157.57 18.3722C157.911 18.1023 158.172 17.7259 158.352 17.2429C158.536 16.7599 158.629 16.1941 158.629 15.5455C158.629 14.8968 158.539 14.3333 158.359 13.8551C158.179 13.3769 157.918 13.0076 157.577 12.7472C157.237 12.4867 156.822 12.3565 156.335 12.3565C155.837 12.3565 155.418 12.4915 155.077 12.7614C154.737 13.0312 154.478 13.4053 154.303 13.8835C154.128 14.3617 154.04 14.9157 154.04 15.5455C154.04 16.1799 154.128 16.741 154.303 17.2287C154.483 17.7116 154.741 18.0904 155.077 18.3651C155.418 18.6349 155.837 18.7699 156.335 18.7699ZM169.042 21.2131C167.92 21.2131 166.954 20.9858 166.145 20.5312C165.34 20.072 164.719 19.4233 164.284 18.5852C163.848 17.7424 163.63 16.7457 163.63 15.5952C163.63 14.473 163.848 13.4882 164.284 12.6406C164.719 11.7931 165.333 11.1326 166.123 10.6591C166.919 10.1856 167.851 9.94886 168.922 9.94886C169.641 9.94886 170.311 10.0649 170.931 10.2969C171.556 10.5241 172.101 10.8674 172.565 11.3267C173.034 11.786 173.398 12.3636 173.659 13.0597C173.919 13.7509 174.049 14.5606 174.049 15.4886V16.3196H164.838V14.4446H171.201C171.201 14.009 171.107 13.6231 170.917 13.2869C170.728 12.9508 170.465 12.688 170.129 12.4986C169.797 12.3045 169.412 12.2074 168.971 12.2074C168.512 12.2074 168.105 12.3139 167.75 12.527C167.399 12.7353 167.125 13.017 166.926 13.3722C166.727 13.7225 166.625 14.1132 166.62 14.544V16.3267C166.62 16.8665 166.72 17.3329 166.919 17.7259C167.122 18.1188 167.409 18.4219 167.778 18.6349C168.147 18.848 168.585 18.9545 169.092 18.9545C169.428 18.9545 169.736 18.9072 170.015 18.8125C170.295 18.7178 170.534 18.5758 170.733 18.3864C170.931 18.197 171.083 17.965 171.187 17.6903L173.985 17.875C173.843 18.5473 173.552 19.1345 173.112 19.6364C172.676 20.1335 172.113 20.5218 171.422 20.8011C170.735 21.0758 169.942 21.2131 169.042 21.2131Z" fill="#32586D"/>
</svg>
